<?xml version="1.0" encoding="UTF-8"?>
<svg width="50px" height="50px" viewBox="0 0 50 50" version="1.1" xmlns="http://www.w3.org/2000/svg" xmlns:xlink="http://www.w3.org/1999/xlink">
    <title>icon_screen_1_</title>
    <g id="页面-1" stroke="none" stroke-width="1" fill="none" fill-rule="evenodd">
        <g id="面试房间-应聘者-共享屏幕备份-2" transform="translate(-91.000000, -413.000000)">
            <g id="icon_screen_1_" transform="translate(91.000000, 413.000000)">
                <circle id="椭圆形备份-4" fill-opacity="0.4" fill="#000000" transform="translate(24.930328, 24.930328) scale(-1, 1) translate(-24.930328, -24.930328) " cx="24.9303279" cy="24.9303279" r="24.9303279"></circle>
                <g id="copy" transform="translate(13.860656, 14.000000)" fill="#FFFFFF" fill-rule="nonzero">
                    <path d="M10,9 C9.44771525,9 9,9.44771525 9,10 L9,19 C9,19.5522847 9.44771525,20 10,20 L19,20 C19.5522847,20 20,19.5522847 20,19 L20,10 C20,9.44771525 19.5522847,9 19,9 L10,9 Z M19,7 C20.6568542,7 22,8.34314575 22,10 L22,19 C22,20.6568542 20.6568542,22 19,22 L10,22 C8.34314575,22 7,20.6568542 7,19 L7,10 C7,8.34314575 8.34314575,7 10,7 L19,7 Z M12,0 C13.6568542,0 15,1.34314575 15,3 L15,3 L15,4 C15,4.55228475 14.5522847,5 14,5 C13.4477153,5 13,4.55228475 13,4 L13,4 L13,3 C13,2.44771525 12.5522847,2 12,2 L12,2 L3,2 C2.44771525,2 2,2.44771525 2,3 L2,3 L2,12 C2,12.5522847 2.44771525,13 3,13 L3,13 L4,13 C4.55228475,13 5,13.4477153 5,14 C5,14.5522847 4.55228475,15 4,15 L4,15 L3,15 C1.34314575,15 0,13.6568542 0,12 L0,12 L0,3 C0,1.34314575 1.34314575,0 3,0 L3,0 Z" id="Combined-Shape"></path>
                </g>
                <polygon id="矩形" fill="#FFFFFF" points="22.3606557 22.5 34.8606557 22 34.8606557 35 22.3606557 34.5"></polygon>
            </g>
        </g>
    </g>
</svg>