<svg width="30px" height="30px" viewBox="0 0 64 64" version="1.1" xmlns="http://www.w3.org/2000/svg" xmlns:xlink="http://www.w3.org/1999/xlink">
  <g id="橡皮" stroke="none" stroke-width="1" fill="none" fill-rule="evenodd">
    <g id="xiangpica" transform="translate(8.000000, 8.000000)" fill="#5B5A5A" fill-rule="nonzero" stroke="#5B5A5A" stroke-width="0.8">
      <path d="M48.8939904,17.2854567 L31.6379808,0.0294471154 L27.9394231,3.72800481 L26.296274,2.08485577 L3.2921875,25.5012019 L4.93533654,27.144351 L2.46766827,28.7875 C-0.818629808,32.0737981 -0.818629808,37.0032452 2.46766827,40.2895433 L8.22163462,46.0435096 C11.5079327,49.3298077 16.4373798,49.3298077 19.7236779,46.0435096 L21.7790865,43.988101 L23.4222356,45.63125 L46.3615385,22.3385817 L45.1954327,20.9840144 L48.8939904,17.2854567 Z M31.6379808,2.90348558 L46.0199519,17.2854567 L43.5522837,19.753125 L29.1762019,4.95889423 L31.6379808,2.90348558 Z M19.3114183,43.988101 C16.4373798,46.8621394 11.9143029,46.8621394 9.04026442,43.988101 L4.52307692,39.4709135 C1.64903846,36.596875 1.64903846,32.0737981 4.52307692,29.1997596 L6.16622596,28.3752404 L20.5481971,42.7572115 L19.3114183,43.988101 Z M23.3574519,42.4038462 L6.5078125,25.1772837 L26.3846154,5.34759615 L43.2401442,22.3503606 L23.3574519,42.4038462 Z" id="形状"></path>
    </g>
  </g>
</svg>