<?xml version="1.0" encoding="UTF-8"?>
<svg width="50px" height="50px" viewBox="0 0 50 50" version="1.1" xmlns="http://www.w3.org/2000/svg" xmlns:xlink="http://www.w3.org/1999/xlink">
    <title>icon_video_on_</title>
    <defs>
        <filter id="filter-1">
            <feColorMatrix in="SourceGraphic" type="matrix" values="0 0 0 0 1.000000 0 0 0 0 1.000000 0 0 0 0 1.000000 0 0 0 1.000000 0"></feColorMatrix>
        </filter>
        <path d="M14.0295359,0.210970464 C15.6898856,0.210970464 17.035865,1.55694986 17.035865,3.21729958 L17.035865,13.2383966 C17.035865,14.8987463 15.6898856,16.2447257 14.0295359,16.2447257 L3.00632911,16.2447257 C1.34597939,16.2447257 0,14.8987463 0,13.2383966 L0,3.21729958 C0,1.55694986 1.34597939,0.210970464 3.00632911,0.210970464 L14.0295359,0.210970464 Z" id="path-2"></path>
    </defs>
    <g id="é¡µé¢-1" stroke="none" stroke-width="1" fill="none" fill-rule="evenodd">
        <g id="é¢è¯•å®˜-å…³é—­éº¦å…‹é£Ž" transform="translate(-629.000000, -707.000000)">
            <g id="icon_video_on_" transform="translate(629.000000, 707.000000)">
                <circle id="æ¤­åœ†å½¢å¤‡ä»½-2" fill-opacity="0.4" fill="#000000" cx="25" cy="25" r="25"></circle>
                <g filter="url(#filter-1)" id="video">
                    <g transform="translate(13.291139, 17.088608)">
                        <path d="M22.4660588,2.40184937 C23.1293236,1.92808878 24.0506329,2.40221105 24.0506329,3.21729958 L24.0506329,13.2383966 C24.0506329,14.0534852 23.1293236,14.5276074 22.4660588,14.0538468 L15.4512908,9.04329831 C14.8917638,8.64363615 14.8917638,7.81206005 15.4512908,7.41239789 L22.4660588,2.40184937 Z" id="Shape" fill="#000000" fill-rule="nonzero"></path>
                        <path d="M3.00632911,2.21518987 C2.45287921,2.21518987 2.00421941,2.66384967 2.00421941,3.21729958 L2.00421941,13.2383966 C2.00421941,13.7918465 2.45287921,14.2405063 3.00632911,14.2405063 L14.0295359,14.2405063 C14.5829858,14.2405063 15.0316456,13.7918465 15.0316456,13.2383966 L15.0316456,3.21729958 C15.0316456,2.66384967 14.5829858,2.21518987 14.0295359,2.21518987 L3.00632911,2.21518987 Z" id="Rectangle-path" fill="#000000" fill-rule="nonzero"></path>
                        <mask id="mask-3" fill="white">
                            <use xlink:href="#path-2"></use>
                        </mask>
                        <use id="Combined-Shape" fill="#000000" fill-rule="nonzero" xlink:href="#path-2"></use>
                        <g id="ðŸŽ¨Color" mask="url(#mask-3)" fill="#FFFFFF">
                            <g transform="translate(0.000000, -3.797468)" id="Rectangle">
                                <rect x="0" y="0" width="24.0506329" height="24.0506329"></rect>
                            </g>
                        </g>
                    </g>
                </g>
            </g>
        </g>
    </g>
</svg>