<svg width="30px" height="30px" viewBox="0 0 64 64" version="1.1" xmlns="http://www.w3.org/2000/svg" xmlns:xlink="http://www.w3.org/1999/xlink">
  <g id="激光笔" stroke="none" stroke-width="1" fill="none" fill-rule="evenodd">
    <g id="shoushi" transform="translate(10.000000, 5.000000)" fill="#5B5A5A" fill-rule="nonzero">
      <path d="M40.0273875,20.6834143 L39.8923875,20.6834143 C38.8852875,20.6834143 38.0568375,20.9723657 37.2625875,21.4650257 C36.5641875,19.4323114 34.7916375,17.9678829 32.5096875,17.9678829 C31.5025875,17.9678829 30.5391375,18.2568343 29.7426375,18.7494943 C29.0451375,16.7172171 27.2739375,15.25104 24.9892875,15.25104 C24.0996375,15.25104 23.2716375,15.47442 22.5385875,15.8669743 L22.5385875,10.6321886 C22.5385875,7.78201714 20.3835375,5.47171714 17.5156875,5.47171714 C14.6473875,5.47171714 12.3204375,7.78332857 12.3204375,10.6321886 L12.3204375,30.6686314 L9.1663875,27.5247 C7.1377875,25.5068486 3.5467875,25.7958 1.8192375,27.5247 C0.0903375,29.2540371 -1.0423125,32.7310714 1.4317875,35.2087971 L15.9402375,49.6323257 C16.2338044,49.9201243 16.5610877,50.1735018 16.9153875,50.3872714 C19.5600375,52.5458829 22.5921375,53.8249629 29.0005875,53.8249629 C43.6440375,53.8249629 44.9994375,45.9179229 44.9994375,36.1692 L44.9994375,25.8451971 C44.9985375,22.9950257 42.8974875,20.6834143 40.0273875,20.6834143 M42.2620875,36.1652657 C42.2620875,44.4176486 42.2247375,51.1063714 28.9996875,51.1063714 C23.3967375,51.1063714 20.0352375,49.85658 17.4864375,47.3237743 L3.7510875,33.6704914 C2.5360875,32.4534857 2.8420875,30.9007543 3.8356875,29.9045057 C4.8292875,28.9095686 6.6562875,28.8750343 7.6179375,29.8284429 C7.6179375,29.8284429 10.0272375,32.2235486 12.1035375,34.2907971 C13.6735875,35.85402 15.0541875,37.2266486 15.0541875,37.2266486 L15.0541875,11.1755571 C15.0541875,9.82609714 16.1566875,8.73061714 17.5170375,8.73061714 C18.8778375,8.73061714 19.8057375,9.82609714 19.8057375,11.1755571 L19.8057375,27.7467686 L19.8327375,27.7467686 C19.8138375,27.8315743 19.8057375,27.92556 19.8057375,28.0191086 C19.8057375,28.7679343 20.4190875,29.3768743 21.1728375,29.3768743 C21.9288375,29.3768743 22.5421875,28.7692457 22.5421875,28.0191086 C22.5421875,27.92556 22.5318375,27.8350714 22.5142875,27.7467686 L22.5421875,27.7467686 L22.5421875,20.9557543 C22.5421875,19.6062943 23.5240875,18.5095029 24.8844375,18.5095029 C24.8844375,18.5095029 27.2910375,18.4767171 27.2910375,20.9557543 L27.2910375,29.9180571 L27.3184875,29.9180571 C27.3007841,30.0079781 27.2915957,30.0992852 27.2910375,30.1908343 C27.2910375,30.9414086 27.9025875,31.5486 28.6599375,31.5486 C29.4141375,31.5486 30.0274875,30.9409714 30.0274875,30.1908343 C30.0274183,30.0992823 30.0183775,30.0079446 30.0004875,29.9180571 L30.0274875,29.9180571 L30.0274875,23.6712857 C30.0274875,22.3218257 30.9940875,21.2267829 32.3548875,21.2267829 C32.3548875,21.2267829 34.8123375,21.3815314 34.8123375,23.6712857 L34.8123375,31.5490371 L34.8393375,31.5490371 C34.8226875,31.6360286 34.8123375,31.7295771 34.8123375,31.8213771 C34.8123375,32.5702029 35.4243375,33.1808914 36.1798875,33.1808914 C36.9349875,33.1808914 37.5132375,32.5728257 37.5132375,31.8213771 C37.5132375,31.7295771 37.5033375,31.6377771 37.4875875,31.5490371 L37.5132375,31.5490371 L37.5132375,26.1704314 C37.5132375,24.8209714 38.5275375,23.7276771 39.8856375,23.7276771 C39.8856375,23.7276771 42.2688375,23.6306314 42.2688375,26.1704314 L42.2688375,36.1657029 L42.2620875,36.1657029 M10.2918375,18.3272143 L10.2918375,13.7647543 C9.84266269,12.7595878 9.61077261,11.6755203 9.6105375,10.5797314 C9.6105375,6.25507714 13.1142375,2.74788 17.4378375,2.74788 C21.7605375,2.74788 25.2646875,6.25507714 25.2646875,10.5797314 C25.264089,11.1573914 25.1989068,11.7332797 25.0702875,12.2972657 C26.0260998,12.3335583 26.9298659,12.7297307 27.5902875,13.4019257 C27.8409375,12.5035971 27.9894375,11.5615543 27.9894375,10.5810429 C27.9894375,4.75261714 23.2657875,0.0257914286 17.4418875,0.0257914286 C11.6139375,0.0257914286 6.89163565,4.75261714 6.89163565,10.5810429 C6.8898375,13.6462886 8.2029375,16.3998514 10.2918375,18.3272143" id="形状"></path>
    </g>
  </g>
</svg>