<svg width="30px" height="30px" viewBox="0 0 64 64" version="1.1" xmlns="http://www.w3.org/2000/svg" xmlns:xlink="http://www.w3.org/1999/xlink">
  <g id="文件上传" stroke="none" stroke-width="1" fill="none" fill-rule="evenodd">
    <g id="wenjianshangchuan" transform="translate(9.000000, 12.000000)" fill="#5B5A5A" fill-rule="nonzero" stroke="#5B5A5A">
      <path d="M42.9281218,39.888845 L3.65959754,39.888845 C1.64184729,39.888845 0.0121258969,38.2727047 0.0121258969,36.271769 L0.0121258969,3.64112574 C0.0897316579,1.64019008 1.64184729,0.0240496956 3.65959754,0.0240496956 L20.6552632,0.0240496956 C22.6730134,0.0240496956 24.3027348,1.64019003 24.3027348,3.64112574 C24.3027348,4.17983917 23.8371001,4.6415936 23.2938596,4.64159355 C22.7506192,4.64159355 22.2849845,4.17983917 22.2849845,3.64112574 C22.2849845,2.79457603 21.5865325,2.10194446 20.7328689,2.10194446 L3.65959754,2.10194446 C2.80593396,2.10194446 2.10748196,2.79457603 2.10748196,3.64112574 L2.10748196,36.271769 C2.10748196,37.1183187 2.80593396,37.8109503 3.65959754,37.8109503 L42.850516,37.8109503 C43.3937564,37.8109503 43.8593911,38.2727047 43.8593911,38.8114181 C43.9369969,39.4270906 43.4713622,39.888845 42.9281218,39.888845 L42.9281218,39.888845 Z" id="路径"></path>
      <path d="M42.9281218,39.888845 C42.3848813,39.888845 41.9192466,39.4270906 41.9192467,38.8883772 C41.9192467,38.3496637 42.3848813,37.8879093 42.9281218,37.8879094 C43.7817853,37.8879094 44.4802373,37.1952778 44.4802373,36.3487281 L44.4802373,15.1080263 C44.4802373,14.2614766 43.7817853,13.568845 42.9281218,13.568845 L12.273839,13.568845 C11.4201754,13.568845 10.7217234,14.2614766 10.7217234,15.1080263 L10.7217234,28.8836989 C10.7217234,29.4224123 10.2560888,29.8841667 9.71284829,29.8841667 C9.16960786,29.8841667 8.70397319,29.4224123 8.70397319,28.8836989 L8.70397319,15.1080263 C8.70397319,13.1070906 10.3336945,11.4909503 12.3514448,11.4909503 L43.0057276,11.4909503 C45.0234778,11.4909503 46.6531992,13.1070906 46.6531992,15.1080263 L46.6531992,36.271769 C46.4979876,38.2727046 44.945872,39.888845 42.9281218,39.888845 Z M35.1675439,8.25866959 L25.9324561,8.25866959 C23.9147059,8.25866959 22.2849845,6.64252926 22.2849845,4.64159355 L22.2849845,4.10288012 C22.2849845,3.56416669 22.7506192,3.10241226 23.2938596,3.10241226 C23.8371001,3.10241226 24.3027348,3.56416664 24.3027348,4.10288012 L24.3027348,4.64159355 C24.3027348,5.48814326 25.0011868,6.18077483 25.8548504,6.18077483 L35.0899381,6.18077483 C35.6331785,6.18077483 36.0988132,6.64252921 36.0988132,7.18124269 C36.0988132,7.71995616 35.7107843,8.25866959 35.1675439,8.25866959 L35.1675439,8.25866959 Z" id="形状"></path>
      <path d="M7.07425179,39.888845 L6.22058822,39.888845 C5.67734779,39.888845 5.21171312,39.4270906 5.21171312,38.8883772 C5.21171312,38.3496637 5.67734779,37.8879093 6.22058822,37.8879094 L7.07425179,37.8879094 C7.92791537,37.8879094 8.62636737,37.1952778 8.62636737,36.3487281 L8.62636737,27.5753948 C8.62636737,27.0366813 9.09200204,26.5749269 9.63524252,26.5749269 C10.178483,26.5749269 10.6441177,27.0366813 10.6441176,27.5753948 L10.6441176,36.271769 C10.7217234,38.2727046 9.09200204,39.888845 7.07425179,39.888845 Z M39.5134675,13.568845 C38.9702271,13.568845 38.5045924,13.1070906 38.5045924,12.5683772 L38.5045924,9.79785087 C38.5045924,8.95130116 37.8061404,8.25866959 36.9524768,8.25866959 L32.29613,8.25866959 C31.7528896,8.25866959 31.2872549,7.79691521 31.2872549,7.25820173 C31.2872549,6.71948831 31.7528896,6.25773393 32.29613,6.25773393 L36.9524768,6.25773393 C38.970227,6.25773393 40.5999484,7.87387426 40.5999484,9.87480992 L40.5999484,12.6453363 C40.5223427,13.1070906 40.056708,13.568845 39.5134675,13.568845 Z" id="形状"></path>
      <path d="M28.105418,32.4238158 C27.5621775,32.4238158 27.0965428,31.9620614 27.0965428,31.4233479 L27.0965428,20.4951608 C27.0965428,19.9564474 27.5621775,19.494693 28.105418,19.494693 C28.6486584,19.494693 29.1142931,19.9564474 29.1142931,20.4951608 L29.1142931,31.4233479 C29.1142931,31.9620614 28.6486584,32.4238158 28.105418,32.4238158 Z" id="路径"></path>
      <path d="M32.5289474,25.8822953 C32.29613,25.8822953 31.9857069,25.8053363 31.8304954,25.574459 L27.406966,21.1877924 C27.0189371,20.802997 27.0189371,20.1103655 27.406966,19.7255702 C27.7949949,19.3407749 28.4934469,19.3407749 28.8814757,19.7255702 L33.3050052,24.1122369 C33.6930341,24.4970322 33.6930341,25.1896638 33.3050052,25.574459 C33.0721878,25.8053362 32.7617648,25.8822953 32.5289474,25.8822953 Z" id="路径"></path>
      <path d="M23.6818886,25.8822953 C23.4490712,25.8822953 23.1386481,25.8053363 22.9834366,25.574459 C22.5954076,25.1896637 22.5954076,24.4970321 22.9834366,24.1122369 L27.406966,19.7255702 C27.7949949,19.3407749 28.4934469,19.3407749 28.8814757,19.7255702 C29.2695046,20.1103655 29.2695046,20.8029971 28.8814757,21.1877924 L24.4579463,25.574459 C24.1475232,25.8053362 23.9147059,25.8822953 23.6818886,25.8822953 L23.6818886,25.8822953 Z" id="路径"></path>
    </g>
  </g>
</svg>