<?xml version="1.0" encoding="UTF-8"?>
<svg width="24px" height="24px" viewBox="0 0 24 24" version="1.1" xmlns="http://www.w3.org/2000/svg" xmlns:xlink="http://www.w3.org/1999/xlink">
    <title>icon_share_@1.5x</title>
    <defs>
        <filter id="filter-1">
            <feColorMatrix in="SourceGraphic" type="matrix" values="0 0 0 0 1.000000 0 0 0 0 1.000000 0 0 0 0 1.000000 0 0 0 1.000000 0"></feColorMatrix>
        </filter>
        <filter x="-47.7%" y="-47.7%" width="195.5%" height="195.5%" filterUnits="objectBoundingBox" id="filter-2">
            <feOffset dx="0" dy="2" in="SourceAlpha" result="shadowOffsetOuter1"></feOffset>
            <feGaussianBlur stdDeviation="1.5" in="shadowOffsetOuter1" result="shadowBlurOuter1"></feGaussianBlur>
            <feColorMatrix values="0 0 0 0 0   0 0 0 0 0   0 0 0 0 0  0 0 0 0.5 0" type="matrix" in="shadowBlurOuter1" result="shadowMatrixOuter1"></feColorMatrix>
            <feMerge>
                <feMergeNode in="shadowMatrixOuter1"></feMergeNode>
                <feMergeNode in="SourceGraphic"></feMergeNode>
            </feMerge>
        </filter>
        <path d="M16.5,0.916666667 C18.5250441,0.916666667 20.1666667,2.55828925 20.1666667,4.58333333 C20.1666667,6.60837742 18.5250441,8.25 16.5,8.25 C15.4813538,8.25 14.5597261,7.83461476 13.895263,7.16399048 L9.02948235,10.0029653 C9.11885391,10.3199736 9.16666667,10.6544032 9.16666667,11 C9.16666667,11.3455968 9.11885391,11.6800264 9.02948235,11.9970347 L13.8988267,14.8324177 C14.5630194,14.1639024 15.4831737,13.75 16.5,13.75 C18.5250441,13.75 20.1666667,15.3916226 20.1666667,17.4166667 C20.1666667,19.4417107 18.5250441,21.0833333 16.5,21.0833333 C14.4749559,21.0833333 12.8333333,19.4417107 12.8333333,17.4166667 C12.8333333,17.0692452 12.8816523,16.7331091 12.9719367,16.4146122 L8.10573552,13.579649 C7.44119736,14.2508651 6.51915651,14.6666667 5.5,14.6666667 C3.47495592,14.6666667 1.83333333,13.0250441 1.83333333,11 C1.83333333,8.97495592 3.47495592,7.33333333 5.5,7.33333333 C6.51864617,7.33333333 7.44027391,7.74871858 8.10473702,8.41934285 L12.9705176,5.58036801 C12.8811461,5.2633597 12.8333333,4.92893015 12.8333333,4.58333333 C12.8333333,2.55828925 14.4749559,0.916666667 16.5,0.916666667 Z M16.5,15.5833333 C15.858736,15.5833333 15.2943694,15.9125699 14.9667149,16.4112281 L14.9270075,16.4940212 C14.9080132,16.526617 14.8873178,16.5576053 14.8650994,16.5869394 C14.738079,16.8360364 14.6666667,17.1180119 14.6666667,17.4166667 C14.6666667,18.4291887 15.487478,19.25 16.5,19.25 C17.512522,19.25 18.3333333,18.4291887 18.3333333,17.4166667 C18.3333333,16.4041446 17.512522,15.5833333 16.5,15.5833333 Z M5.5,9.16666667 C4.48747796,9.16666667 3.66666667,9.98747796 3.66666667,11 C3.66666667,12.012522 4.48747796,12.8333333 5.5,12.8333333 C6.16712138,12.8333333 6.75101902,12.4770102 7.07175563,11.9443011 L7.08215913,11.9226454 C7.08566776,11.9166244 7.08923442,11.9106581 7.09285801,11.904747 C7.24641988,11.6386562 7.33333333,11.3294779 7.33333333,11 C7.33333333,10.6678434 7.2450009,10.3563179 7.09054537,10.0876329 L7.08245356,10.0778595 C7.07807051,10.0703488 7.07380629,10.0628015 7.06966034,10.0552198 C6.75042633,9.52262826 6.16678281,9.16666667 5.5,9.16666667 Z M16.5,2.75 C15.487478,2.75 14.6666667,3.57081129 14.6666667,4.58333333 C14.6666667,4.91384358 14.7541256,5.22392669 14.9071628,5.49170197 L14.9175464,5.50547388 C14.9211672,5.51167834 14.9247069,5.51790778 14.9281658,5.52416097 C15.246692,6.05894507 15.8315708,6.41666667 16.5,6.41666667 C17.512522,6.41666667 18.3333333,5.59585537 18.3333333,4.58333333 C18.3333333,3.57081129 17.512522,2.75 16.5,2.75 Z" id="path-3"></path>
    </defs>
    <g id="icon_share_" stroke="none" stroke-width="1" fill="none" fill-rule="evenodd">
        <g id="icon_share_备份">
            <g id="icon_share_" transform="translate(1.000000, 1.000000)" filter="url(#filter-1)">
                <g filter="url(#filter-2)">
                    <mask id="mask-4" fill="white">
                        <use xlink:href="#path-3"></use>
                    </mask>
                    <use id="Combined-Shape" fill="#000000" fill-rule="nonzero" xlink:href="#path-3"></use>
                    <g id="编组" mask="url(#mask-4)" fill="#000000">
                        <g id="COLOR/-black">
                            <rect id="Rectangle" x="0" y="0" width="22" height="22"></rect>
                        </g>
                    </g>
                </g>
            </g>
            <rect id="矩形" x="0" y="0" width="24" height="24"></rect>
        </g>
    </g>
</svg>