<svg width="35px" height="35px" viewBox="0 0 75 80" version="1.1" xmlns="http://www.w3.org/2000/svg">
  <g id="页面-4" stroke="none" stroke-width="1" fill="none" fill-rule="evenodd" fill-opacity="0.85">
    <g id="画板-copy-28备份-18" transform="translate(-11.000000, -8.000000)" fill="#1F9F8C" stroke="#1F9F8C" stroke-width="2">
      <path d="M31,11 L63.2985075,11 C64.403077,11 65.2985075,11.8954305 65.2985075,13 L65.2985075,79 C65.2985075,83.418278 61.7167855,87 57.2985075,87 L37,87 C32.581722,87 29,83.418278 29,79 L29,13 C29,11.8954305 29.8954305,11 31,11 Z M29.0000213,64.3134328 L65.2985288,64.3134328 L65.2985288,79 C65.2985288,83.418278 61.7168068,87 57.2985288,87 L37.0000213,87 C32.5817433,87 29.0000213,83.418278 29.0000213,79 L29.0000213,64.3134328 Z" id="矩形-2-copy" transform="translate(47.149264, 49.000000) rotate(40.000000) translate(-47.149264, -49.000000) "></path>
    </g>
  </g>
</svg>