<?xml version="1.0" encoding="UTF-8"?>
<svg width="50px" height="50px" viewBox="0 0 50 50" version="1.1" xmlns="http://www.w3.org/2000/svg" xmlns:xlink="http://www.w3.org/1999/xlink">
    <title>icon_screen_2_</title>
    <g id="页面-1" stroke="none" stroke-width="1" fill="none" fill-rule="evenodd">
        <g id="面试房间-应聘者备份" transform="translate(-91.000000, -413.000000)">
            <g id="icon_screen_2_" transform="translate(91.000000, 413.000000)">
                <circle id="椭圆形备份-5" fill-opacity="0.4" fill="#000000" transform="translate(24.930328, 24.930328) scale(-1, 1) translate(-24.930328, -24.930328) " cx="24.9303279" cy="24.9303279" r="24.9303279"></circle>
                <g id="copy备份" transform="translate(13.860656, 14.000000)" fill="#FFFFFF">
                    <path d="M10,9 C9.44771525,9 9,9.44771525 9,10 L9,19 C9,19.5522847 9.44771525,20 10,20 L19,20 C19.5522847,20 20,19.5522847 20,19 L20,10 C20,9.44771525 19.5522847,9 19,9 L10,9 Z M10,7 L19,7 C20.6568542,7 22,8.34314575 22,10 L22,19 C22,20.6568542 20.6568542,22 19,22 L10,22 C8.34314575,22 7,20.6568542 7,19 L7,10 C7,8.34314575 8.34314575,7 10,7 Z" id="Combined-Shape" fill-rule="nonzero"></path>
                    <path d="M4,13 L3,13 C2.44771525,13 2,12.5522847 2,12 L2,3 C2,2.44771525 2.44771525,2 3,2 L12,2 C12.5522847,2 13,2.44771525 13,3 L13,4 C13,4.55228475 13.4477153,5 14,5 C14.5522847,5 15,4.55228475 15,4 L15,3 C15,1.34314575 13.6568542,0 12,0 L3,0 C1.34314575,0 0,1.34314575 0,3 L0,12 C0,13.6568542 1.34314575,15 3,15 L4,15 C4.55228475,15 5,14.5522847 5,14 C5,13.4477153 4.55228475,13 4,13 Z" id="Shape" fill-rule="nonzero"></path>
                    <path d="M12.1393443,1 C13.7869556,1 15.1226085,2.3356529 15.1226085,3.98326424 L15.1224388,4.01651841 L15.1224388,4.01651841 L15.111,5 L8,5 C6.40231912,5 5.09633912,6.24891996 5.00509269,7.82372721 L5,8 L5,15 L3.98319285,15 C2.94152637,15 2.07427641,14.2004612 1.98978312,13.1622271 L1,1 L12.1393443,1 L12.1393443,1 Z" id="形状结合"></path>
                </g>
                <path d="M17.8606557,27 L16.8606557,27 C16.308371,27 15.8606557,26.5522847 15.8606557,26 L15.8606557,17 C15.8606557,16.4477153 16.308371,16 16.8606557,16 L25.8606557,16 C26.4129405,16 26.8606557,16.4477153 26.8606557,17 L26.8606557,18 C26.8606557,18.5522847 27.308371,19 27.8606557,19 C28.4129405,19 28.8606557,18.5522847 28.8606557,18 L28.8606557,17 C28.8606557,15.3431458 27.51751,14 25.8606557,14 L16.8606557,14 C15.2038015,14 13.8606557,15.3431458 13.8606557,17 L13.8606557,26 C13.8606557,27.6568542 15.2038015,29 16.8606557,29 L17.8606557,29 C18.4129405,29 18.8606557,28.5522847 18.8606557,28 C18.8606557,27.4477153 18.4129405,27 17.8606557,27 Z" id="Shape" fill="#FFFFFF" fill-rule="nonzero"></path>
                <rect id="矩形" fill="#FFFFFF" x="14" y="14" width="15" height="15" rx="3"></rect>
            </g>
        </g>
    </g>
</svg>