<svg width="30px" height="30px" viewBox="0 0 64 64" version="1.1" xmlns="http://www.w3.org/2000/svg" xmlns:xlink="http://www.w3.org/1999/xlink">
  <title>mdpi/页导航</title>
  <g id="页导航" stroke="none" stroke-width="1" fill="none" fill-rule="evenodd">
    <g id="编组" transform="translate(12.000000, 11.000000)" stroke="#000000" stroke-width="2.5">
      <rect id="矩形" x="1.25" y="3.64800443" width="15.1008869" height="15.1008869" rx="2"></rect>
      <path d="M36.6241685,4.90521064 C36.8312753,4.90521064 37.0187753,4.98915725 37.1544986,5.12488056 C37.2902219,5.26060386 37.3741685,5.44810386 37.3741685,5.65521064 L37.3741685,5.65521064 L37.3741685,17.0210643 C37.3741685,17.2281711 37.2902219,17.4156711 37.1544986,17.5513944 C37.0187753,17.6871177 36.8312753,17.7710643 36.6241685,17.7710643 L36.6241685,17.7710643 L25.2583149,17.7710643 C25.0512081,17.7710643 24.8637081,17.6871177 24.7279848,17.5513944 C24.5922615,17.4156711 24.5083149,17.2281711 24.5083149,17.0210643 L24.5083149,17.0210643 L24.5083149,5.65521064 C24.5083149,5.44810386 24.5922615,5.26060386 24.7279848,5.12488056 C24.8637081,4.98915725 25.0512081,4.90521064 25.2583149,4.90521064 L25.2583149,4.90521064 Z" id="矩形-copy-2" transform="translate(30.941242, 11.338137) rotate(45.000000) translate(-30.941242, -11.338137) "></path>
      <rect id="矩形-copy" x="1.25" y="25.6491131" width="15.1008869" height="15.1008869" rx="2"></rect>
      <rect id="矩形-copy-3" x="23.2511086" y="25.6491131" width="15.1008869" height="15.1008869" rx="2"></rect>
    </g>
  </g>
</svg>