<?xml version="1.0" encoding="UTF-8"?>
<svg width="16px" height="16px" viewBox="0 0 16 16" version="1.1" xmlns="http://www.w3.org/2000/svg" xmlns:xlink="http://www.w3.org/1999/xlink">
    <title>icon_normal_</title>
    <g id="页面-1" stroke="none" stroke-width="1" fill="none" fill-rule="evenodd">
        <g id="设备测试页" transform="translate(-991.000000, -257.000000)">
            <g id="icon_normal_" transform="translate(991.000000, 257.000000)">
                <path d="M16,8.09876543 C16,3.58162963 12.4183704,0 7.90123457,0 C3.58162963,0 0,3.58162963 0,8.09876543 C0,12.4183704 3.58162963,16 7.90123457,16 C12.4183704,16 16,12.4183704 16,8.09876543 Z" id="Fill-" fill="#09BB07"></path>
                <path d="M3.92994565,8.32401822 C3.79971902,8.18996336 3.78415427,7.9594798 3.90569923,7.7949834 L3.94940527,7.73583256 C4.06624098,7.57770956 4.28455914,7.54375263 4.44285728,7.66442801 L6.17805054,8.98721741 C6.33374086,9.10590476 6.57260867,9.10877204 6.72010398,8.9865559 L11.5935395,4.94837677 C11.737217,4.82932407 11.9619586,4.83916402 12.1089465,4.9835498 L12.0652404,4.94061749 C12.2062143,5.07909572 12.208654,5.30083333 12.0686686,5.43786053 L6.7116086,10.6817161 C6.57252805,10.8178577 6.35474208,10.8200955 6.2239848,10.6854944 L3.92994565,8.32401822 Z" id="Fill-" fill="#FFFFFF"></path>
            </g>
        </g>
    </g>
</svg>