<svg width="69px" height="69px" viewBox="0 0 69 69" version="1.1" xmlns="http://www.w3.org/2000/svg">
  <g id="页面-4" stroke="none" stroke-width="1" fill="none" fill-rule="evenodd">
    <g id="画板-copy-37备份-6" transform="translate(-14.000000, -14.000000)">
      <g id="clue-xiansuo" transform="translate(14.000000, 14.000000)">
        <path d="M63.2166295,31.6121652 C61.8612723,17.9738839 51.0184152,7.13102679 37.3878348,5.77566964 L37.3878348,0 C54.2142857,1.39386161 67.6138393,14.7857143 69,31.6044643 L63.2166295,31.6044643 L63.2166295,31.6121652 Z M5.78337054,31.6121652 L0,31.6121652 C1.39386161,14.7934152 14.7934152,1.4015625 31.6121652,0.00770089286 L31.6121652,5.78337054 C17.9738839,7.13102679 7.13872768,17.9738839 5.78337054,31.6121652 Z M5.78337054,37.3878348 C7.13872768,51.0261161 17.9815848,61.8689732 31.6121652,63.2243304 L31.6121652,69 C14.7934152,67.5984375 1.39386161,54.2065848 0,37.3878348 L5.78337054,37.3878348 Z M63.2166295,37.3878348 L69,37.3878348 C67.6061384,54.2065848 54.2065848,67.6061384 37.3878348,68.9922991 L37.3878348,63.2166295 C51.0261161,61.8689732 61.8612723,51.0261161 63.2166295,37.3878348 L63.2166295,37.3878348 Z" id="形状" fill="#1F9F8C" fill-rule="nonzero"></path>
        <circle id="Oval-2-Copy-2" fill="#F44949" cx="34.5" cy="34.5" r="11.5"></circle>
      </g>
    </g>
  </g>
</svg>