<?xml version="1.0" encoding="UTF-8"?>
<svg width="14px" height="14px" viewBox="0 0 14 14" version="1.1" xmlns="http://www.w3.org/2000/svg" xmlns:xlink="http://www.w3.org/1999/xlink">
    <title>icon_link_</title>
    <defs>
        <filter id="filter-1">
            <feColorMatrix in="SourceGraphic" type="matrix" values="0 0 0 0 1.000000 0 0 0 0 1.000000 0 0 0 0 1.000000 0 0 0 1.000000 0"></feColorMatrix>
        </filter>
        <path d="M5.86444748,4.66383762 L6.0811247,4.67262915 C7.0940405,4.74517219 8.02551077,5.25407745 8.63377961,6.06726249 C8.82675021,6.32524185 8.7740502,6.69080901 8.51607084,6.88377961 C8.25809149,7.07675021 7.89252432,7.0240502 7.69955372,6.76607084 C7.29404116,6.22394748 6.67306098,5.88467731 5.99778379,5.83631528 C5.32250659,5.78795325 4.65951635,6.03526798 4.18081229,6.51414562 L4.18081229,6.51414562 L2.43791812,8.25691521 C1.55364963,9.17246595 1.56629591,10.6277797 2.46634144,11.5278252 C3.36638697,12.4278708 4.82170072,12.440517 5.73002104,11.5633544 L5.73002104,11.5633544 L6.72752104,10.5658544 C6.95532688,10.3380485 7.32467312,10.3380485 7.55247896,10.5658544 C7.78028479,10.7936602 7.78028479,11.1630065 7.55247896,11.3908123 L7.55247896,11.3908123 L6.54774855,12.3954181 C5.17442244,13.7218209 2.99145183,13.7028514 1.64138353,12.3527831 C0.291315238,11.0027148 0.272345813,8.81974422 1.60585438,7.43918771 L1.60585438,7.43918771 L3.35577961,5.68926249 C4.07372355,4.97105821 5.06820891,4.60008611 6.0811247,4.67262915 Z M7.45225145,1.60458188 C8.82557756,0.278179147 11.0085482,0.297148571 12.3586165,1.64721687 C13.7086848,2.99728516 13.7276542,5.18025578 12.3941456,6.56081229 L12.3941456,6.56081229 L10.6442204,8.31073751 C9.92627645,9.02894179 8.93179109,9.39991389 7.9188753,9.32737085 C6.9059595,9.25482781 5.97448923,8.74592255 5.36622039,7.93273751 C5.17324979,7.67475815 5.2259498,7.30919099 5.48392916,7.11622039 C5.74190851,6.92324979 6.10747568,6.9759498 6.30044628,7.23392916 C6.70595884,7.77605252 7.32693902,8.11532269 8.00221621,8.16368472 C8.67749341,8.21204675 9.34048365,7.96473202 9.81918771,7.48585438 L9.81918771,7.48585438 L11.5620819,5.74308479 C12.4463504,4.82753405 12.4337041,3.37222031 11.5336586,2.47217478 C10.633613,1.57212925 9.17829928,1.55948296 8.26877465,2.43784643 L8.26877465,2.43784643 L7.26544131,3.43534643 C7.03697229,3.66248714 6.66762762,3.66141033 6.44048691,3.43294131 C6.21334619,3.20447229 6.214423,2.83512762 6.44289202,2.60798691 L6.44289202,2.60798691 Z" id="path-2"></path>
    </defs>
    <g id="页面-1" stroke="none" stroke-width="1" fill="none" fill-rule="evenodd">
        <g id="面试官-关闭麦克风" transform="translate(-1222.000000, -190.000000)">
            <g id="link" transform="translate(1222.000000, 190.000000)" filter="url(#filter-1)">
                <g>
                    <mask id="mask-3" fill="white">
                        <use xlink:href="#path-2"></use>
                    </mask>
                    <use id="Combined-Shape" fill="#000000" fill-rule="nonzero" xlink:href="#path-2"></use>
                    <g id="编组" mask="url(#mask-3)" fill="#000000">
                        <g id="COLOR/-black">
                            <rect id="Rectangle" x="0" y="0" width="14" height="14"></rect>
                        </g>
                    </g>
                </g>
            </g>
        </g>
    </g>
</svg>