<svg width="34px" height="30px" viewBox="0 0 64 64" version="1.1" xmlns="http://www.w3.org/2000/svg" xmlns:xlink="http://www.w3.org/1999/xlink">
  <title>mdpi/书写笔</title>
  <g id="书写笔" stroke="none" stroke-width="1" fill="none" fill-rule="evenodd">
    <g id="icon-test" transform="translate(6.000000, 7.000000)" fill="#5B5A5A" fill-rule="nonzero">
      <path d="M18.3653465,44.5398515 C17.2960396,44.5398515 16.2334158,44.1321782 15.4247525,43.3235149 C14.5492574,42.4480198 14.1148515,41.2316832 14.2351485,39.9886139 C13.0054455,40.1222772 11.7891089,39.6878713 10.9136139,38.8123762 C10.0381188,37.9368812 9.60371287,36.7205446 9.7240099,35.4774752 C8.48762376,35.6111386 7.2779703,35.1767327 6.40247525,34.2945545 C4.77846535,32.6705446 4.77846535,30.0306931 6.40247525,28.4066832 C6.69653465,28.1126238 7.17772277,28.1126238 7.47178218,28.4066832 C7.76584158,28.7007426 7.76584158,29.1819307 7.47178218,29.4759901 C6.43589109,30.5118812 6.43589109,32.1893564 7.47178218,33.2252475 C8.02648515,33.7799505 8.7950495,34.0539604 9.59034653,33.9804455 C10.044802,33.9403465 10.4792079,34.0940594 10.8,34.4148515 C11.1207921,34.7356436 11.274505,35.1767327 11.2344059,35.624505 C11.1542079,36.4131188 11.434901,37.1883663 11.989604,37.7430693 C12.5443069,38.2977723 13.3195545,38.5717822 14.1081683,38.4982673 C14.5559406,38.4581683 14.9970297,38.6118812 15.3178218,38.9326733 C15.6386139,39.2534653 15.7923267,39.6945545 15.7522277,40.1423267 C15.6720297,40.9309406 15.9460396,41.699505 16.5074257,42.2608911 C17.5366337,43.2967822 19.2207921,43.2967822 20.25,42.2608911 C20.5440594,41.9668317 21.0252475,41.9668317 21.3193069,42.2608911 C21.6133663,42.5549505 21.6133663,43.0361386 21.3193069,43.330198 C20.4972772,44.1321782 19.4346535,44.5398515 18.3653465,44.5398515 L18.3653465,44.5398515 Z" id="形状" stroke="5B5A5A"></path>
      <path d="M18.9334158,46.2039604 C18.5457921,46.2039604 18.1581683,46.0569307 17.8641089,45.7628713 C17.2759901,45.1747525 17.2759901,44.2123762 17.8641089,43.6242574 L46.9007426,16.5876238 C48.0435644,15.444802 48.6717822,13.9210396 48.6717822,12.3037129 C48.6717822,10.6863861 48.0435644,9.16930693 46.9007426,8.01980198 L43.6928218,4.81188119 C41.3336634,2.45272277 37.4908416,2.45272277 35.1316832,4.81188119 L6.0950495,31.8485149 C5.50693069,32.4366337 4.54455446,32.4366337 3.95643564,31.8485149 C3.36831683,31.260396 3.36831683,30.2980198 3.95643564,29.709901 L32.9863861,2.67326733 C36.5284653,-0.868811881 42.2893564,-0.868811881 45.8314356,2.67326733 L49.0393564,5.88118812 C50.7569307,7.59876238 51.6992574,9.87772277 51.6992574,12.3037129 C51.6992574,14.729703 50.7569307,17.0086634 49.0393564,18.7262376 L20.0027228,45.7628713 C19.7086634,46.0569307 19.3210396,46.2039604 18.9334158,46.2039604 Z" id="路径"></path>
      <path d="M1.54381188,49.6858911 C1.14950495,49.6858911 0.761881188,49.5321782 0.47450495,49.244802 C0.113613861,48.8839109 -0.0400990099,48.3759901 0.0601485149,47.8747525 L3.54207921,30.4918317 C3.70915842,29.669802 4.50445545,29.1418317 5.32648515,29.3022277 C6.14851485,29.4693069 6.67648515,30.264604 6.51608911,31.0866337 L3.47524752,46.2440594 L18.6326733,43.209901 C19.454703,43.0428218 20.25,43.5774752 20.4170792,44.399505 C20.5841584,45.2215347 20.049505,46.0168317 19.2274752,46.1839109 L1.84455446,49.6658416 C1.74430693,49.6725248 1.64405941,49.6858911 1.54381188,49.6858911 Z" id="路径"></path>
    </g>
  </g>
</svg>