<?xml version="1.0" encoding="UTF-8"?>
<svg width="14px" height="14px" viewBox="0 0 14 14" version="1.1" xmlns="http://www.w3.org/2000/svg" xmlns:xlink="http://www.w3.org/1999/xlink">
    <title>icon_abnormality_</title>
    <g id="页面-1" stroke="none" stroke-width="1" fill="none" fill-rule="evenodd">
        <g id="设备测试页" transform="translate(-991.000000, -636.000000)">
            <g id="icon_abnormality_" transform="translate(991.000000, 636.000000)">
                <ellipse id="椭圆形" fill="#FFFFFF" cx="7.5" cy="8" rx="3.5" ry="5"></ellipse>
                <path d="M6.91358025,0 C10.8660741,0 14,3.13392593 14,7.08641975 C14,10.8660741 10.8660741,14 6.91358025,14 C3.13392593,14 0,10.8660741 0,7.08641975 C0,3.13392593 3.13392593,0 6.91358025,0 Z M7,9.1 C6.61340068,9.1 6.3,9.41340068 6.3,9.8 C6.3,10.1865993 6.61340068,10.5 7,10.5 C7.38659932,10.5 7.7,10.1865993 7.7,9.8 C7.7,9.41340068 7.38659932,9.1 7,9.1 Z M7.40309601,3.5 L6.59690399,3.5 C6.43292844,3.5 6.30576782,3.62112427 6.31389729,3.79184313 L6.53333333,8.4 L7.46666667,8.4 L7.68610271,3.79184313 C7.69377797,3.63066262 7.57080078,3.5 7.40309601,3.5 Z" id="Fill-3" fill="#F43530"></path>
            </g>
        </g>
    </g>
</svg>