<svg t="1593771785616" class="icon" viewBox="0 0 1024 1024" version="1.1" xmlns="http://www.w3.org/2000/svg" p-id="16277" xmlns:xlink="http://www.w3.org/1999/xlink" width="200" height="200"><defs></defs><path d="M510.537016 1014.078844c-67.964659 0-133.907178-13.315997-195.994961-39.576884-59.959897-25.361049-113.805489-61.663802-160.04137-107.897688-46.234883-46.23588-82.536638-100.081472-107.897687-160.041369C20.342111 644.474122 7.026114 578.532601 7.026114 510.567942s13.315997-133.907178 39.576884-195.994962c25.361049-59.959897 61.663802-113.805489 107.897687-160.041369 46.23588-46.234883 100.080475-82.536638 160.04137-107.897687C376.629838 20.373037 442.572357 7.05704 510.537016 7.05704S644.444194 20.373037 706.531977 46.633924c59.959897 25.361049 113.805489 61.663802 160.04137 107.897687 46.234883 46.23588 82.536638 100.080475 107.897687 160.041369 26.260887 62.087783 39.576884 128.030302 39.576884 195.994962s-13.315997 133.907178-39.576884 195.994961c-25.361049 59.959897-61.663802 113.805489-107.897687 160.041369-46.23588 46.234883-100.080475 82.536638-160.04137 107.897688-62.088781 26.260887-128.030302 39.576884-195.994961 39.576884z m0-967.117707c-255.633631 0-463.606804 207.973174-463.606804 463.606805s207.973174 463.606804 463.606804 463.606804 463.606804-207.973174 463.606804-463.606804S766.170647 46.961137 510.537016 46.961137z" fill="#5B5A5A" p-id="16278"></path></svg>