<?xml version="1.0" encoding="UTF-8"?>
<svg width="24px" height="24px" viewBox="0 0 24 24" version="1.1" xmlns="http://www.w3.org/2000/svg" xmlns:xlink="http://www.w3.org/1999/xlink">
    <title>icon_quit_@1.5x</title>
    <defs>
        <filter x="-43.8%" y="-43.8%" width="187.5%" height="187.5%" filterUnits="objectBoundingBox" id="filter-1">
            <feOffset dx="0" dy="2" in="SourceAlpha" result="shadowOffsetOuter1"></feOffset>
            <feGaussianBlur stdDeviation="1.5" in="shadowOffsetOuter1" result="shadowBlurOuter1"></feGaussianBlur>
            <feColorMatrix values="0 0 0 0 0   0 0 0 0 0   0 0 0 0 0  0 0 0 0.5 0" type="matrix" in="shadowBlurOuter1" result="shadowMatrixOuter1"></feColorMatrix>
            <feMerge>
                <feMergeNode in="shadowMatrixOuter1"></feMergeNode>
                <feMergeNode in="SourceGraphic"></feMergeNode>
            </feMerge>
        </filter>
        <path d="M5.29289322,6.70710678 L17.2928932,18.7071068 C17.6834175,19.0976311 18.3165825,19.0976311 18.7071068,18.7071068 C19.0976311,18.3165825 19.0976311,17.6834175 18.7071068,17.2928932 L6.70710678,5.29289322 C6.31658249,4.90236893 5.68341751,4.90236893 5.29289322,5.29289322 C4.90236893,5.68341751 4.90236893,6.31658249 5.29289322,6.70710678 Z" id="path-2"></path>
        <filter id="filter-4">
            <feColorMatrix in="SourceGraphic" type="matrix" values="0 0 0 0 1.000000 0 0 0 0 1.000000 0 0 0 0 1.000000 0 0 0 1.000000 0"></feColorMatrix>
        </filter>
    </defs>
    <g id="icon_quit_" stroke="none" stroke-width="1" fill="none" fill-rule="evenodd">
        <g id="icon_quit_备份" filter="url(#filter-1)">
            <rect id="矩形" x="0" y="0" width="24" height="24"></rect>
            <path d="M17.2928932,5.29289322 L5.29289322,17.2928932 C4.90236893,17.6834175 4.90236893,18.3165825 5.29289322,18.7071068 C5.68341751,19.0976311 6.31658249,19.0976311 6.70710678,18.7071068 L18.7071068,6.70710678 C19.0976311,6.31658249 19.0976311,5.68341751 18.7071068,5.29289322 C18.3165825,4.90236893 17.6834175,4.90236893 17.2928932,5.29289322 Z" id="Shape" fill="#FFFFFF" fill-rule="nonzero"></path>
            <mask id="mask-3" fill="white">
                <use xlink:href="#path-2"></use>
            </mask>
            <use id="Combined-Shape" fill="#FFFFFF" fill-rule="nonzero" xlink:href="#path-2"></use>
            <g filter="url(#filter-4)" id="COLOR/-black">
                <g mask="url(#mask-3)">
                    <rect id="Rectangle" fill="#000000" x="0" y="0" width="24" height="24"></rect>
                </g>
            </g>
        </g>
    </g>
</svg>