<?xml version="1.0" encoding="UTF-8"?>
<svg width="31px" height="28px" viewBox="0 0 31 28" version="1.1" xmlns="http://www.w3.org/2000/svg" xmlns:xlink="http://www.w3.org/1999/xlink">
    <title>icon_确认☑️_</title>
    <g id="页面-1" stroke="none" stroke-width="1" fill="none" fill-rule="evenodd">
        <g id="面试列表-修改资料" transform="translate(-1147.000000, -222.000000)">
            <g id="编组-2" transform="translate(1000.000000, 80.000000)">
                <g id="icon_确认☑️_" transform="translate(147.000000, 142.000000)">
                    <path d="M0,0 L25,0 C28.3137085,-6.08718376e-16 31,2.6862915 31,6 L31,22 C31,25.3137085 28.3137085,28 25,28 L0,28 L0,28 L0,0 Z" id="矩形备份-7" fill="#1890FF"></path>
                    <rect id="矩形" x="4" y="3" width="22" height="22"></rect>
                    <g id="勾备份" transform="translate(11.000000, 9.000000)">
                        <rect id="Rectangle" fill="#000000" opacity="0" x="0" y="0" width="10" height="10"></rect>
                        <path d="M9.46428571,1.40625 L8.68415179,1.40625 C8.57477679,1.40625 8.47098214,1.45647321 8.40401786,1.54241071 L3.80245536,7.37165179 L1.59598214,4.57589286 C1.52790179,4.48995536 1.42522321,4.43973214 1.31584821,4.43973214 L0.535714286,4.43973214 C0.4609375,4.43973214 0.419642857,4.52566964 0.465401786,4.58370536 L3.52232143,8.45647321 C3.66517857,8.63727679 3.93973214,8.63727679 4.08370536,8.45647321 L9.53459821,1.54910714 C9.58035714,1.4921875 9.5390625,1.40625 9.46428571,1.40625 Z" id="Path" stroke="#FFFFFF" stroke-width="0.833333333" fill="#FFFFFF"></path>
                    </g>
                </g>
            </g>
        </g>
    </g>
</svg>