<?xml version="1.0" encoding="UTF-8"?>
<svg width="50px" height="50px" viewBox="0 0 50 50" version="1.1" xmlns="http://www.w3.org/2000/svg" xmlns:xlink="http://www.w3.org/1999/xlink">
    <title>icon_microphone_on_</title>
    <defs>
        <path d="M4.20765027,23.9836066 C3.65574277,23.9836066 3.20833333,23.5361971 3.20833333,22.9842896 C3.20833333,22.4323821 3.65574277,21.9849727 4.20765027,21.9849727 L4.20765027,21.9849727 L7.20533333,21.984 L7.20560109,18.9870219 C7.20560109,18.4745363 7.59137759,18.0521537 8.08837657,17.9944281 L8.20491803,17.9877049 C8.75682554,17.9877049 9.20423497,18.4351144 9.20423497,18.9870219 L9.20423497,18.9870219 L9.20333333,21.984 L12.2021858,21.9849727 C12.7146713,21.9849727 13.1370539,22.3707492 13.1947796,22.8677482 L13.2015027,22.9842896 C13.2015027,23.5361971 12.7540933,23.9836066 12.2021858,23.9836066 L12.2021858,23.9836066 Z M8.20491803,0 C10.4125481,0 12.2021858,1.78963773 12.2021858,3.99726776 L12.2021858,11.9918033 C12.2021858,14.1994333 10.4125481,15.989071 8.20491803,15.989071 C5.99728801,15.989071 4.20765027,14.1994333 4.20765027,11.9918033 L4.20765027,3.99726776 C4.20765027,1.78963773 5.99728801,0 8.20491803,0 Z" id="path-1"></path>
        <filter id="filter-3">
            <feColorMatrix in="SourceGraphic" type="matrix" values="0 0 0 0 1.000000 0 0 0 0 1.000000 0 0 0 0 1.000000 0 0 0 1.000000 0"></feColorMatrix>
        </filter>
    </defs>
    <g id="页面-1" stroke="none" stroke-width="1" fill="none" fill-rule="evenodd">
        <g id="icon_microphone_on_">
            <circle id="椭圆形备份" fill-opacity="0.4" fill="#000000" cx="24.9303279" cy="24.9303279" r="24.9303279"></circle>
            <g id="mic" transform="translate(17.040984, 13.254098)">
                <path d="M8.20491803,1.99863388 C7.10110302,1.99863388 6.20628415,2.89345275 6.20628415,3.99726776 L6.20628415,11.9918033 C6.20628415,13.0956183 7.10110302,13.9904372 8.20491803,13.9904372 C9.30873305,13.9904372 10.2035519,13.0956183 10.2035519,11.9918033 L10.2035519,3.99726776 C10.2035519,2.89345275 9.30873305,1.99863388 8.20491803,1.99863388 Z" id="Shape" fill="#000000" fill-rule="nonzero"></path>
                <path d="M14.2008197,9.9931694 L14.2008197,11.9918033 C14.2008196,15.3032483 11.516363,17.9877048 8.20491803,17.9877048 C4.89347303,17.9877048 2.20901644,15.3032483 2.20901639,11.9918033 L2.20901639,9.9931694 C2.20901639,9.44126189 1.76160696,8.99385246 1.20969945,8.99385246 C0.657791947,8.99385246 0.210382514,9.44126189 0.210382514,9.9931694 L0.210382514,11.9918033 C0.210382514,16.4070633 3.78965803,19.9863387 8.20491803,19.9863387 C12.620178,19.9863387 16.1994536,16.4070633 16.1994536,11.9918033 L16.1994536,9.9931694 C16.1994536,9.44126189 15.7520441,8.99385246 15.2001366,8.99385246 C14.6482291,8.99385246 14.2008197,9.44126189 14.2008197,9.9931694 Z" id="Shape" fill="#FFFFFF" fill-rule="nonzero"></path>
                <mask id="mask-2" fill="white">
                    <use xlink:href="#path-1"></use>
                </mask>
                <use id="Combined-Shape" fill="#000000" fill-rule="nonzero" xlink:href="#path-1"></use>
                <g filter="url(#filter-3)" id="COLOR/-black">
                    <g mask="url(#mask-2)">
                        <g transform="translate(-3.786885, 0.000000)" fill="#000000" id="Rectangle">
                            <rect x="0" y="0" width="23.9836066" height="23.9836066"></rect>
                        </g>
                    </g>
                </g>
            </g>
        </g>
    </g>
</svg>