<?xml version="1.0" encoding="UTF-8"?>
<svg width="50px" height="50px" viewBox="0 0 50 50" version="1.1" xmlns="http://www.w3.org/2000/svg" xmlns:xlink="http://www.w3.org/1999/xlink">
    <title>icon_video_off_</title>
    <defs>
        <filter id="filter-1">
            <feColorMatrix in="SourceGraphic" type="matrix" values="0 0 0 0 0.356863 0 0 0 0 0.388235 0 0 0 0 0.474510 0 0 0 1.000000 0"></feColorMatrix>
        </filter>
        <filter id="filter-2">
            <feColorMatrix in="SourceGraphic" type="matrix" values="0 0 0 0 1.000000 0 0 0 0 1.000000 0 0 0 0 1.000000 0 0 0 1.000000 0"></feColorMatrix>
        </filter>
        <path d="M0.292893219,0.292893219 C0.683417511,-0.0976310729 1.31658249,-0.0976310729 1.70710678,0.292893219 L1.70710678,0.292893219 L23.7071068,22.2928932 C24.0976311,22.6834175 24.0976311,23.3165825 23.7071068,23.7071068 C23.3165825,24.0976311 22.6834175,24.0976311 22.2928932,23.7071068 L22.2928932,23.7071068 L16.7608094,18.1758252 C16.303475,19.2482628 15.2395263,20 14,20 L14,20 L3,20 C1.34314575,20 0,18.6568542 0,17 L0,17 L0,7 C0,5.47498816 1.13789178,4.21574519 2.61095068,4.02499575 L0.292893219,1.70710678 C-0.0976310729,1.31658249 -0.0976310729,0.683417511 0.292893219,0.292893219 Z M4.585,6 L3,6 C2.44771525,6 2,6.44771525 2,7 L2,7 L2,17 C2,17.5522847 2.44771525,18 3,18 L3,18 L14,18 C14.5522847,18 15,17.5522847 15,17 L15,17 L15,16.415 L4.585,6 Z M14,4 C15.6568542,4 17,5.34314575 17,7 L17,7 L17,9.92578644 L17.1044657,10.0302521 L22.4139179,6.1897483 C23.0751672,5.71144469 24,6.18389651 24,7 L24,7 L24,17 C24,17.5522847 23.5522847,18 23,18 C22.4477153,18 22,17.5522847 22,17 L22,17 L22,8.95751772 L17.5860821,12.1502517 C17.1881706,12.4380743 16.6401506,12.3943642 16.2928932,12.0471068 L16.2928932,12.0471068 L15.2928932,11.0471068 C15.1053568,10.8595704 15,10.6052165 15,10.34 L15,10.34 L15,7 C15,6.44771525 14.5522847,6 14,6 L14,6 L10.66,6 C10.1077153,6 9.66,5.55228475 9.66,5 C9.66,4.44771525 10.1077153,4 10.66,4 L10.66,4 Z" id="path-3"></path>
    </defs>
    <g id="页面-1" stroke="none" stroke-width="1" fill="none" fill-rule="evenodd">
        <g id="面试房间-面试官-关闭摄像头" transform="translate(-629.000000, -707.000000)">
            <g id="icon_video_off_" transform="translate(629.000000, 707.000000)">
                <g id="icon_video_on_" fill="#FFFFFF">
                    <circle id="椭圆形备份-2" cx="25" cy="25" r="25"></circle>
                </g>
                <g filter="url(#filter-1)" id="编组-3">
                    <g transform="translate(14.000000, 13.000000)">
                        <g id="video-off" filter="url(#filter-2)">
                            <g>
                                <mask id="mask-4" fill="white">
                                    <use xlink:href="#path-3"></use>
                                </mask>
                                <use id="Combined-Shape" fill="#000000" fill-rule="nonzero" xlink:href="#path-3"></use>
                                <g id="编组" mask="url(#mask-4)" fill="#000000">
                                    <g id="COLOR/-black">
                                        <rect id="Rectangle" x="0" y="0" width="24" height="24"></rect>
                                    </g>
                                </g>
                            </g>
                        </g>
                        <polygon id="路径-5" fill="#FFFFFF" points="4.5 4.5 16 17 14.5 18.5 2 18.5 1 6"></polygon>
                        <path d="M10.5,5 C9.38126179,4.77955832 9.38126179,5.27955832 10.5,6.5 C11.6187382,7.72044168 13.2854049,9.38710835 15.5,11.5 C18.1699233,14.0266009 20.1699233,15.8599342 21.5,17 C22.8300767,18.1400658 23.3300767,18.1400658 23,17 L22.5,7.5 L17,10.5 L16,8 L14.5,4.5 L10.5,5 Z" id="路径-6" fill="#FFFFFF"></path>
                    </g>
                </g>
            </g>
        </g>
    </g>
</svg>