<svg width="30px" height="30px" viewBox="0 0 64 64" version="1.1" xmlns="http://www.w3.org/2000/svg" xmlns:xlink="http://www.w3.org/1999/xlink">
  <title>mdpi/荧光笔</title>
  <g id="荧光笔" stroke="none" stroke-width="1" fill="none" fill-rule="evenodd">
    <g id="6dingbu_makebi" transform="translate(5.000000, 8.000000)" fill="#000000" fill-rule="nonzero">
      <path d="M43.9456667,0.588833312 L44.1856667,0.802166687 L53.7216667,10.3381667 C54.6324285,11.2493924 54.7614931,12.6814485 54.0283333,13.7408333 L53.8283333,13.9941667 L27.2443333,42.1541667 C26.7921552,42.6637932 26.1443049,42.9566836 25.463,42.9595 C25.1918728,43.2094797 24.8517945,43.3720854 24.487,43.4261667 L24.2096667,43.4475 L18.5083333,43.4448333 L14.183,47.7701667 L13.239,46.8261667 L11.191,48.8768333 L0.0416666875,44.9381667 L5.695,39.2821667 L4.75633331,38.3381667 L9.079,34.0155 L9.079,28.3141667 C9.079,27.8288334 9.26566669,27.3861667 9.56966669,27.0528333 C9.57676711,26.525498 9.75453217,26.0146574 10.0763333,25.5968333 L10.2976667,25.3461667 L40.527,0.6955 C41.4906913,-0.162419008 42.9303657,-0.207338655 43.9456667,0.588833312 Z M7.583,41.1675 L4.92166669,43.8315 L10.495,45.7995 L11.3563333,44.9381667 L7.583,41.1675 Z M11.7456667,35.1195 L8.527,38.3408333 L14.183,43.9995 L17.4016667,40.7808333 L22.2763333,40.7781667 L11.7456667,30.2448333 L11.7456667,35.1195 Z M42.3003333,2.6875 L12.3536667,27.0795 L25.439,40.1675 L51.8363333,12.2208333 L42.3003333,2.6875 Z" id="形状"></path>
    </g>
  </g>
</svg>