<svg width="34px" height="30px" viewBox="0 0 64 64" version="1.1" xmlns="http://www.w3.org/2000/svg" xmlns:xlink="http://www.w3.org/1999/xlink">
  <g id="选择" stroke="none" stroke-width="1" fill="none" fill-rule="evenodd">
    <g id="编组" transform="translate(10.000000, 11.000000)" fill-rule="nonzero">
      <path d="M43.5164818,38.5460563 L37.2978146,32.327389 C36.9320107,31.9615851 37.1149127,31.5957811 37.4807166,31.4128792 L43.5164818,27.7548397 C43.8822858,27.5719377 43.8822858,26.8403298 43.3335799,26.6574278 L22.2998526,19.7071527 C21.9340486,19.5242507 21.3853427,19.8900547 21.5682447,20.4387606 L28.3356178,41.6553898 C28.5185198,42.2040958 29.2501277,42.2040958 29.4330297,41.8382918 L33.0910692,35.8025266 C33.2739712,35.4367226 33.8226771,35.4367226 34.0055791,35.6196246 L40.4071483,41.8382918 C40.5900502,42.0211938 40.9558542,42.0211938 41.3216581,41.8382918 L43.6993838,39.4605661 C43.6993838,39.0947622 43.6993838,38.7289582 43.5164818,38.5460563 L43.5164818,38.5460563 Z" id="路径" stroke="#5B5A5A" stroke-width="2.5"></path>
      <g id="xuanze-5" fill="#5B5A5A">
        <path d="M7.0212766,34.2996831 C4.79229991,34.2996831 2.34042558,32.5691436 2.34042553,30.6247171 L2.34042553,6.55319149 C2.34042553,4.60876502 4.79229986,2.04164784 7.0212766,2.0416478 L35.106383,2.0416478 C37.3353597,2.0416478 39.787234,4.58884646 39.787234,6.53327297 L39.787234,17.1498416 L42.1276596,17.8887236 L42.1276596,6.22216475 C42.1276596,2.91663975 39.0070922,0 34.9949341,0 L7.13272544,0 C3.12056736,0.388885294 0,3.11108236 0,6.61105004 L0,30.5274957 C0,33.8330207 3.12056736,36.5552178 7.13272544,36.5552178 L19.6149949,36.5552178 L18.7234043,34.2996831 L7.0212766,34.2996831 Z" id="路径"></path>
      </g>
    </g>
  </g>
</svg>