<?xml version="1.0" encoding="UTF-8"?>
<svg width="50px" height="50px" viewBox="0 0 50 50" version="1.1" xmlns="http://www.w3.org/2000/svg" xmlns:xlink="http://www.w3.org/1999/xlink">
    <title>icon_microphone_off_</title>
    <defs>
        <filter id="filter-1">
            <feColorMatrix in="SourceGraphic" type="matrix" values="0 0 0 0 0.356863 0 0 0 0 0.388235 0 0 0 0 0.474510 0 0 0 1.000000 0"></feColorMatrix>
        </filter>
        <filter id="filter-2">
            <feColorMatrix in="SourceGraphic" type="matrix" values="0 0 0 0 1.000000 0 0 0 0 1.000000 0 0 0 0 1.000000 0 0 0 1.000000 0"></feColorMatrix>
        </filter>
        <path d="M7.33333333,24.0032437 C6.82707231,24.0032437 6.41666667,23.5555285 6.41666667,23.0032437 C6.41666667,22.450959 6.82707231,22.0032437 7.33333333,22.0032437 L7.33333333,22.0032437 L10.083,22.003 L10.0835478,19.992169 C9.53442989,19.916752 8.988335,19.7726922 8.45574179,19.5576461 L8.20340151,19.4499643 C5.4397849,18.2063368 3.64482008,15.257122 3.66666667,12.0032437 L3.66666667,12.0032437 L3.66666667,10.0032437 C3.66666667,9.45095898 4.07707231,9.00324373 4.58333333,9.00324373 C5.08959435,9.00324373 5.5,9.45095898 5.5,10.0032437 L5.5,10.0032437 L5.49997547,12.0105597 C5.48357213,14.4564553 6.82979575,16.6683665 8.9025082,17.6010871 C9.49599358,17.8681555 10.1150186,18.0150375 10.7331351,18.0476479 C10.8176633,18.0182801 10.907222,18.0032437 11,18.0032437 C11.0913169,18.0032437 11.1795152,18.0178102 11.2627488,18.0449295 C12.3153087,17.9926062 13.3435525,17.6078718 14.2145209,16.9231702 L12.860645,15.4475562 C11.8840489,16.0749196 10.6764658,16.1838013 9.59726318,15.6963205 C8.22797616,15.0778073 7.33463723,13.6208788 7.33333333,12.0032437 L7.33333333,12.0032437 L7.333,9.417 L0.268485451,1.71035051 C-0.0596634335,1.35236991 -0.0870091738,0.790503733 0.18644823,0.398542203 L0.268485451,0.29613695 C0.626466051,-0.0943873419 1.20686728,-0.0943873419 1.56484788,0.29613695 L1.56484788,0.29613695 L8.89246903,8.28995957 C8.89615195,8.29390785 8.89980444,8.29788981 8.90342607,8.30190499 L16.0371832,16.0841307 C16.1040873,16.1257735 16.1672393,16.1773669 16.2248413,16.2389313 C16.2866582,16.3050003 16.3380818,16.3782759 16.3790893,16.4563343 L21.7315145,22.2961369 C22.0894952,22.6866612 22.0894952,23.3198262 21.7315145,23.7103505 C21.3735339,24.1008748 20.7931327,24.1008748 20.4351521,23.7103505 L20.4351521,23.7103505 L15.523,18.3517564 C14.4663397,19.2555317 13.2162134,19.8129223 11.9164595,19.9917601 L11.916,22.003 L14.6666667,22.0032437 C15.1367662,22.0032437 15.5242149,22.3892839 15.5771662,22.8866226 L15.5833333,23.0032437 C15.5833333,23.5555285 15.1729277,24.0032437 14.6666667,24.0032437 L14.6666667,24.0032437 Z M17.4166667,9.00324373 C17.9229277,9.00324373 18.3333333,9.45095898 18.3333333,10.0032437 L18.3333333,10.0032437 L18.3333333,12.0041148 C18.3329566,12.4754747 18.2943939,12.9458762 18.2180949,13.4098291 C18.1286966,13.9534348 17.6522687,14.3150545 17.1539634,14.2175291 C16.6556581,14.1200037 16.3241735,13.6002642 16.4135718,13.0566584 C16.470796,12.7086937 16.4997181,12.3558927 16.5,12.0032437 L16.5,12.0032437 L16.5,10.0032437 C16.5,9.45095898 16.9104056,9.00324373 17.4166667,9.00324373 Z M9.166,11.417 L9.16666631,12.0023642 C9.16731808,12.8107419 9.61398755,13.5392062 10.2986311,13.8484628 C10.6787665,14.0201717 11.0907584,14.0438979 11.4717861,13.9332557 L9.166,11.417 Z M7.4066662,3.20424873 C7.78152549,1.19033451 9.49427145,-0.186046216 11.3684966,0.0204799761 C13.2427218,0.227006168 14.6685594,1.94923632 14.6666685,4.00324373 L14.6666685,4.00324373 L14.6666685,9.34324373 C14.6666685,9.89552848 14.256261,10.3432437 13.75,10.3432437 C13.243739,10.3432437 12.8333333,9.89552848 12.8333333,9.34324373 L12.8333333,9.34324373 L12.8333338,4.00223873 C12.8342804,2.97473253 12.1213616,2.11361745 11.184249,2.01035435 C10.2471364,1.90709126 9.39076344,2.59528162 9.2033338,3.60223873 C9.10259038,4.14347807 8.61872397,4.49314614 8.12258792,4.38324424 C7.62645186,4.27334233 7.30592279,3.74548806 7.4066662,3.20424873 Z" id="path-3"></path>
    </defs>
    <g id="页面-1" stroke="none" stroke-width="1" fill="none" fill-rule="evenodd">
        <g id="面试官-关闭麦克风" transform="translate(-459.000000, -707.000000)">
            <g id="icon_microphone_off_" transform="translate(459.000000, 707.000000)">
                <g id="icon_video_on_备份" fill="#FFFFFF">
                    <circle id="椭圆形备份-2" cx="25" cy="25" r="25"></circle>
                </g>
                <g filter="url(#filter-1)" id="编组-2">
                    <g transform="translate(14.000000, 13.000000)">
                        <g id="编组">
                            <g id="mic-off" filter="url(#filter-2)">
                                <g>
                                    <mask id="mask-4" fill="white">
                                        <use xlink:href="#path-3"></use>
                                    </mask>
                                    <use id="Combined-Shape" fill="#000000" fill-rule="nonzero" xlink:href="#path-3"></use>
                                    <g id="编组" mask="url(#mask-4)" fill="#000000">
                                        <g id="COLOR/-black">
                                            <rect id="Rectangle" x="0" y="0" width="22" height="24"></rect>
                                        </g>
                                    </g>
                                </g>
                            </g>
                            <path d="M8.5,5 C11.1666667,8 12.6666667,9.66666667 13,10 C13.3333333,10.3333333 13.5,10.3333333 13.5,10 L13.5,1.5 L9.5,1.5 L8.5,3.5 C7.83333333,3.16666667 7.5,3.16666667 7.5,3.5 C7.5,3.83333333 7.83333333,4.33333333 8.5,5 Z" id="路径-3" fill="#FFFFFF"></path>
                        </g>
                        <polygon id="路径-4" fill="#FFFFFF" points="9 10 13 14 10.5 15 8.5 12"></polygon>
                    </g>
                </g>
            </g>
        </g>
    </g>
</svg>